Coordinates
version=1
nRows=14
nColumns=40
inDegrees=yes

Units are S.I. units (second, meters, Newtons, ...)
If the header above contains a line with 'inDegrees', this indicates whether rotational values are in degrees (yes) or radians (no).

endheader
time	pelvis_tilt	pelvis_list	pelvis_rotation	pelvis_tx	pelvis_ty	pelvis_tz	hip_flexion_r	hip_adduction_r	hip_rotation_r	knee_angle_r	knee_angle_r_beta	ankle_angle_r	subtalar_angle_r	mtp_angle_r	hip_flexion_l	hip_adduction_l	hip_rotation_l	knee_angle_l	knee_angle_l_beta	ankle_angle_l	subtalar_angle_l	mtp_angle_l	lumbar_extension	lumbar_bending	lumbar_rotation	arm_flex_r	arm_add_r	arm_rot_r	elbow_flex_r	pro_sup_r	wrist_flex_r	wrist_dev_r	arm_flex_l	arm_add_l	arm_rot_l	elbow_flex_l	pro_sup_l	wrist_flex_l	wrist_dev_l
      2.91000000	    -34.63369416	      4.42352419	      3.95672313	     -0.43008372	      0.61645947	     -0.90779638	    100.97607717	    -16.18334167	     11.82577645	    103.55793618	      1.80742695	     38.53439312	      0.00000000	      0.00000000	    100.56802631	    -10.46031353	      0.41565696	    100.25210446	      1.74972930	     33.88241819	      0.00000000	      0.00000000	    -33.91765043	     -4.42162326	     -1.35301249	    -35.14226620	    -52.45211826	     20.72505694	    105.65812895	     88.10208631	      0.00000000	      0.00000000	      6.67156797	    -67.07339005	     64.58564777	    109.97514735	     88.11588487	      0.00000000	      0.00000000
      2.91500000	    -34.58677114	      4.44786738	      3.97182544	     -0.43015499	      0.61657033	     -0.90788347	    100.94873602	    -16.22360380	     11.85001389	    103.56413389	      1.80753512	     38.48558228	      0.00000000	      0.00000000	    100.51659594	    -10.41932508	      0.40837069	    100.25517247	      1.74978285	     33.84722742	      0.00000000	      0.00000000	    -33.99504112	     -4.40575473	     -1.54865490	    -34.85610671	    -52.56985088	     20.95582117	    105.64412246	     88.10067279	      0.00000000	      0.00000000	      5.71846036	    -67.04070981	     63.54637657	    109.96984318	     88.13292048	      0.00000000	      0.00000000
      2.92000000	    -34.61361966	      4.53621687	      3.94912436	     -0.43036776	      0.61654051	     -0.90781107	    101.01155479	    -16.17486660	     11.95339852	    103.53350638	      1.80700057	     38.47192507	      0.00000000	      0.00000000	    100.50079881	    -10.46763683	      0.29334299	    100.21354084	      1.74905624	     33.90385319	      0.00000000	      0.00000000	    -33.98689787	     -4.48906693	     -2.32252421	    -33.28876846	    -53.27041807	     22.70007209	    105.52754401	     88.08953533	      0.00000000	      0.00000000	      2.42837868	    -67.16770502	     60.27553203	    110.20334956	     88.13535053	      0.00000000	      0.00000000
      2.92500000	    -34.54871951	      4.50120035	      3.92519193	     -0.43050511	      0.61665974	     -0.90771238	    100.94098747	    -16.14903553	     11.90042671	    103.53428710	      1.80701420	     38.50775347	      0.00000000	      0.00000000	    100.46717075	    -10.47241759	      0.36365219	    100.22216109	      1.74920669	     33.87599962	      0.00000000	      0.00000000	    -34.02656873	     -4.48787577	     -1.39108746	    -35.00755171	    -52.46340415	     20.85824602	    105.60344957	     88.10387112	      0.00000000	      0.00000000	      6.80441550	    -67.10538494	     64.72043157	    109.98599238	     88.11027507	      0.00000000	      0.00000000
      2.93000000	    -34.52610374	      4.44475396	      4.01803811	     -0.43070071	      0.61669409	     -0.90792138	    100.91764507	    -16.27198379	     11.84067503	    103.53494204	      1.80702563	     38.51648233	      0.00000000	      0.00000000	    100.48212282	    -10.34293180	      0.42010668	    100.20475441	      1.74890289	     33.84910519	      0.00000000	      0.00000000	    -34.05026884	     -4.36414259	     -1.48702326	    -34.92868706	    -52.54746375	     20.94573646	    105.62442407	     88.08827877	      0.00000000	      0.00000000	      6.64608115	    -67.08648043	     64.56425964	    109.98759264	     88.13141005	      0.00000000	      0.00000000
      2.93500000	    -34.58180615	      4.48073210	      3.97834300	     -0.43097733	      0.61660998	     -0.90785447	    101.00949277	    -16.19881202	     11.89724149	    103.51818420	      1.80673315	     38.41518123	      0.00000000	      0.00000000	    100.54350841	    -10.38905881	      0.38431625	    100.19170261	      1.74867509	     33.78836466	      0.00000000	      0.00000000	    -34.00690598	     -4.40942167	     -1.63582873	    -34.67537039	    -52.63384389	     21.16463768	    105.60408488	     88.08393399	      0.00000000	      0.00000000	      5.65206856	    -67.10313989	     63.49694459	    110.03542926	     88.15103269	      0.00000000	      0.00000000
      2.94000000	    -34.59290699	      4.52990120	      3.95601116	     -0.43122732	      0.61658997	     -0.90781497	    101.05791935	    -16.17224586	     11.94191631	    103.50307560	      1.80646946	     38.42502412	      0.00000000	      0.00000000	    100.54987666	    -10.40240106	      0.34967364	    100.17296156	      1.74834800	     33.79515430	      0.00000000	      0.00000000	    -34.01278553	     -4.45974084	     -1.82038124	    -34.34950117	    -52.76891144	     21.49484057	    105.59540938	     88.09256216	      0.00000000	      0.00000000	      4.81486524	    -67.13945458	     62.63137296	    110.09908206	     88.14907798	      0.00000000	      0.00000000
      2.94500000	    -34.60252949	      4.53403104	      4.00611967	     -0.43149940	      0.61662002	     -0.90796230	    101.08431873	    -16.22648830	     11.96085755	    103.47878525	      1.80604551	     38.41644062	      0.00000000	      0.00000000	    100.56559110	    -10.33359472	      0.33574952	    100.13958585	      1.74776548	     33.80288713	      0.00000000	      0.00000000	    -33.97510062	     -4.44178914	     -1.55734895	    -34.82605981	    -52.56588775	     21.05999273	    105.56799119	     88.10672901	      0.00000000	      0.00000000	      6.60034811	    -67.12957723	     64.54445797	    110.04640457	     88.11425759	      0.00000000	      0.00000000
      2.95000000	    -34.60652331	      4.55089540	      4.00148717	     -0.43171893	      0.61660295	     -0.90794498	    101.11589774	    -16.21817210	     11.96803800	    103.47549219	      1.80598803	     38.41979578	      0.00000000	      0.00000000	    100.57457060	    -10.33243183	      0.32643241	    100.12859095	      1.74757359	     33.77657693	      0.00000000	      0.00000000	    -33.98722450	     -4.45100083	     -1.74025072	    -34.51910946	    -52.71609622	     21.38057714	    105.58428233	     88.09342607	      0.00000000	      0.00000000	      5.67948039	    -67.15629925	     63.57768036	    110.10101685	     88.12309083	      0.00000000	      0.00000000
      2.95500000	    -34.68179819	      4.60535479	      3.98384981	     -0.43204825	      0.61651518	     -0.90792293	    101.23601964	    -16.15748352	     12.07359557	    103.45371474	      1.80560795	     38.32197900	      0.00000000	      0.00000000	    100.64651181	    -10.34034722	      0.28097612	    100.08829865	      1.74687035	     33.73491625	      0.00000000	      0.00000000	    -33.89534671	     -4.50199299	     -2.60609145	    -32.63313932	    -53.49783737	     23.42545614	    105.45712665	     88.10925709	      0.00000000	      0.00000000	      2.01170308	    -67.26110856	     59.94449301	    110.26926706	     88.11988090	      0.00000000	      0.00000000
      2.96000000	    -34.66683145	      4.67373795	      3.86896618	     -0.43228731	      0.61651857	     -0.90766557	    101.24474772	    -16.03067153	     12.07909704	    103.39537131	      1.80458966	     38.34163488	      0.00000000	      0.00000000	    100.61214864	    -10.45618793	      0.26828421	    100.08205067	      1.74676131	     33.77658333	      0.00000000	      0.00000000	    -33.95748607	     -4.61451599	     -3.10194614	    -31.74062788	    -53.87867134	     24.27973180	    105.60958598	     88.12045376	      0.00000000	      0.00000000	     -0.88106975	    -67.27845401	     56.91902496	    110.53973633	     88.13896223	      0.00000000	      0.00000000
      2.96500000	    -34.65959233	      4.64139764	      3.93097012	     -0.43250106	      0.61660973	     -0.90787189	    101.25286883	    -16.10945095	     12.07756586	    103.40398862	      1.80474006	     38.29114056	      0.00000000	      0.00000000	    100.63676630	    -10.38657120	      0.25098216	    100.07492113	      1.74663687	     33.73665492	      0.00000000	      0.00000000	    -33.91902710	     -4.57056037	     -1.58655026	    -34.73544688	    -52.59101427	     21.18123138	    105.54572011	     88.09851027	      0.00000000	      0.00000000	      6.59718331	    -67.20060334	     64.57187823	    110.08003755	     88.11526748	      0.00000000	      0.00000000
      2.97000000	    -34.65139521	      4.63003672	      3.85924760	     -0.43262420	      0.61667935	     -0.90762799	    101.23912778	    -16.02842461	     12.02815538	    103.39113276	      1.80451568	     38.24574379	      0.00000000	      0.00000000	    100.63791359	    -10.48391568	      0.26697465	    100.07227167	      1.74659063	     33.69814726	      0.00000000	      0.00000000	    -33.91544134	     -4.58492437	     -2.62818753	    -32.28306544	    -53.55488482	     23.75084857	    105.39078780	     88.10508395	      0.00000000	      0.00000000	      1.74082547	    -67.26743469	     59.68422198	    110.22388522	     88.12953770	      0.00000000	      0.00000000
      2.97500000	    -34.56650458	      4.60963983	      3.83197196	     -0.43279031	      0.61682188	     -0.90760374	    101.14912927	    -16.00814097	     11.99712885	    103.36409876	      1.80404385	     38.24779314	      0.00000000	      0.00000000	    100.57402773	    -10.50005101	      0.30192475	    100.07674381	      1.74666868	     33.72118669	      0.00000000	      0.00000000	    -34.01468047	     -4.58205484	     -1.46743366	    -34.73135820	    -52.57071451	     21.17162564	    105.56380667	     88.10994130	      0.00000000	      0.00000000	      6.75136482	    -67.20093567	     64.70975301	    110.03035990	     88.11475733	      0.00000000	      0.00000000
